<?xml version="1.0" encoding="utf-8"?>
<!-- Generator: Adobe Illustrator 26.5.0, SVG Export Plug-In . SVG Version: 6.00 Build 0)  -->
<svg version="1.1" id="Capa_1" xmlns="http://www.w3.org/2000/svg" xmlns:xlink="http://www.w3.org/1999/xlink" x="0px" y="0px"
	 viewBox="0 0 32 32" style="enable-background:new 0 0 32 32;" xml:space="preserve">
<style type="text/css">
	.st0{clip-path:url(#SVGID_00000103980142365727004110000000696361586964144809_);fill:#FAFAFA;}
	.st1{clip-path:url(#SVGID_00000103980142365727004110000000696361586964144809_);fill:#0A0A0A;}
</style>
<g>
	<defs>
		<path id="SVGID_1_" d="M24,32H8c-4.4,0-8-3.6-8-8V8c0-4.4,3.6-8,8-8h16c4.4,0,8,3.6,8,8v16C32,28.4,28.4,32,24,32z"/>
	</defs>
	<clipPath id="SVGID_00000033359474395158882180000008905371544766164149_">
		<use xlink:href="#SVGID_1_"  style="overflow:visible;"/>
	</clipPath>
	<path style="clip-path:url(#SVGID_00000033359474395158882180000008905371544766164149_);fill:#FAFAFA;" d="M24,32H8
		c-4.4,0-8-3.6-8-8V8c0-4.4,3.6-8,8-8h16c4.4,0,8,3.6,8,8v16C32,28.4,28.4,32,24,32z"/>
	<path style="clip-path:url(#SVGID_00000033359474395158882180000008905371544766164149_);fill:#0A0A0A;" d="M11.6,27.3
		c-1-0.4-1.9-1-2.7-1.8c-0.8-0.8-1.4-1.7-1.8-2.7c-0.4-1-0.7-2.1-0.7-3.3v-7.1c0-1.1,0.2-2.2,0.7-3.3c0.4-1,1-1.9,1.8-2.7
		s1.7-1.4,2.7-1.8c1-0.4,2.1-0.7,3.3-0.7h2.2c1.1,0,2.2,0.2,3.3,0.7c1,0.4,1.9,1,2.7,1.8c0.8,0.8,1.4,1.7,1.8,2.7
		c0.4,1,0.7,2.1,0.7,3.3c0,0.8-0.6,1.4-1.4,1.4s-1.4-0.6-1.4-1.4c0-3.1-2.5-5.6-5.6-5.6h-2.2c-3.1,0-5.6,2.5-5.6,5.6v7.1
		c0,3.1,2.5,5.6,5.6,5.6h2.2c3.1,0,5.6-2.5,5.6-5.6c0-0.8,0.7-1.4,1.4-1.4s1.4,0.6,1.4,1.4c0,1.1-0.2,2.2-0.7,3.3
		c-0.4,1-1,1.9-1.8,2.7c-0.8,0.8-1.7,1.4-2.7,1.8c-1,0.4-2.1,0.7-3.3,0.7h-2.2C13.8,28,12.7,27.8,11.6,27.3z"/>
</g>
</svg>
